<svg xmlns="http://www.w3.org/2000/svg" id="cross" viewBox="0 0 34.52 34.52">
  <g>
    <g>
      <path d="M21.51,23.44a1.46,1.46,0,0,1-1-.43L17.26,19.8,14.05,23A1.48,1.48,0,0,1,12,23l-.45-.45a1.47,1.47,0,0,1,0-2.09l3.21-3.21-3.21-3.21a1.47,1.47,0,0,1,0-2.09l.45-.45a1.48,1.48,0,0,1,2.09,0l3.21,3.21,3.21-3.21a1.48,1.48,0,0,1,2.09,0L23,12a1.47,1.47,0,0,1,0,2.09l-3.2,3.21L23,20.47a1.47,1.47,0,0,1,0,2.09l-.44.45A1.47,1.47,0,0,1,21.51,23.44Z"/>
      <path d="M17.26,34.52A17.26,17.26,0,1,1,34.52,17.26,17.28,17.28,0,0,1,17.26,34.52Zm0-31.07A13.81,13.81,0,1,0,31.07,17.26,13.83,13.83,0,0,0,17.26,3.45Z"/>
    </g>
  </g>
</svg>