<svg xmlns="http://www.w3.org/2000/svg" viewBox="0 0 24 24" id="Apps">
  <path d="M7 0H4A4 4 0 000 4V7a4 4 0 004 4H7a4 4 0 004-4V4A4 4 0 007 0zM9 7A2 2 0 017 9H4A2 2 0 012 7V4A2 2 0 014 2H7A2 2 0 019 4zM20 0H17a4 4 0 00-4 4V7a4 4 0 004 4h3a4 4 0 004-4V4A4 4 0 0020 0zm2 7a2 2 0 01-2 2H17a2 2 0 01-2-2V4a2 2 0 012-2h3a2 2 0 012 2zM7 13H4a4 4 0 00-4 4v3a4 4 0 004 4H7a4 4 0 004-4V17A4 4 0 007 13zm2 7a2 2 0 01-2 2H4a2 2 0 01-2-2V17a2 2 0 012-2H7a2 2 0 012 2zM20 13H17a4 4 0 00-4 4v3a4 4 0 004 4h3a4 4 0 004-4V17A4 4 0 0020 13zm2 7a2 2 0 01-2 2H17a2 2 0 01-2-2V17a2 2 0 012-2h3a2 2 0 012 2z" fill="#094250" class="color000000 svgShape"></path>
</svg>
